PathFileType  4	(X/Y/Z) C:\Users\antoi\Documents\MyRepositories\mobilecap\ResultsAnalysis
DataRate	CameraRate	NumFrames	NumMarkers	Units	OrigDataRate	OrigDataStartFrame	OrigNumFrames
100.0	100.0	5	51	mm	100.0	29	231
Frame#	Time	r_knee			r_shank_antsup			r_ankle			r_calc			r_5meta			r_toe			L_knee			L_shank_antsup			L_ankle			L_calc			L_5meta			L_toe			r_sh2			r_sh3			r_sh4			L_sh2			L_sh3			r_thigh1			r_thigh2			r_thigh3			r_thigh4			r_thigh5			L_thigh1			L_thigh2			L_thigh3			L_thigh4			r.ASIS			r.PSIS			L.ASIS			L.PSIS			C7			R_Shoulder			L_Shoulder			R_Sternum			L_Sternum			R_humerus			R_elbow_med			R_elbow_lat			R_forearm			R_wrist_radius			R_wrist_ulna			L_humerus			L_elbow_med			L_elbow_lat			L_forearm			L_wrist_radius			L_wrist_ulna			R_HJC			L_HJC			R_HJC_reg			L_HJC_reg			
		X1	Y1	Z1	X2	Y2	Z2	X3	Y3	Z3	X4	Y4	Z4	X5	Y5	Z5	X6	Y6	Z6	X7	Y7	Z7	X8	Y8	Z8	X9	Y9	Z9	X10	Y10	Z10	X11	Y11	Z11	X12	Y12	Z12	X13	Y13	Z13	X14	Y14	Z14	X15	Y15	Z15	X16	Y16	Z16	X17	Y17	Z17	X18	Y18	Z18	X19	Y19	Z19	X20	Y20	Z20	X21	Y21	Z21	X22	Y22	Z22	X23	Y23	Z23	X24	Y24	Z24	X25	Y25	Z25	X26	Y26	Z26	X27	Y27	Z27	X28	Y28	Z28	X29	Y29	Z29	X30	Y30	Z30	X31	Y31	Z31	X32	Y32	Z32	X33	Y33	Z33	X34	Y34	Z34	X35	Y35	Z35	X36	Y36	Z36	X37	Y37	Z37	X38	Y38	Z38	X39	Y39	Z39	X40	Y40	Z40	X41	Y41	Z41	X42	Y42	Z42	X43	Y43	Z43	X44	Y44	Z44	X45	Y45	Z45	X46	Y46	Z46	X47	Y47	Z47	X48	Y48	Z48	X49	Y49	Z49	X50	Y50	Z50	X51	Y51	Z51	

29	0.28000000	-1106.92357	769.67410	-452.66158	-1103.79569	695.31524	-430.53914	-1181.36833	399.71761	-463.06755	-1248.34061	359.66924	-500.38369	-1078.00790	361.10683	-437.04071	-1036.82505	386.69526	-492.67905	-1133.29192	770.94769	-729.89666	-1111.31402	703.18454	-733.59297	-1185.05747	402.00341	-732.44019	-1252.57344	361.87508	-686.77738	-1090.56013	358.38667	-758.17394	-1043.69077	386.86217	-704.05515	-1124.53679	583.66081	-426.01756	-1177.57167	707.04177	-435.63341	-1205.89780	594.62596	-433.87198	-1196.58156	722.56076	-756.68669	-1208.09634	601.10919	-765.66267	-1033.51963	1078.26570	-457.31690	-1027.94563	965.50327	-455.66894	-1070.56649	941.24833	-409.59110	-1121.08157	1075.83887	-386.19897	-1124.15402	959.61107	-400.09318	-1060.31569	1051.97880	-746.61856	-1062.11229	913.30811	-739.57424	-1175.22056	1052.47536	-770.52634	-1169.21742	911.64165	-756.02899	-1040.71798	1223.52439	-460.25380	-1225.84159	1256.86049	-524.96468	-1050.93785	1214.16024	-713.37464	-1232.15138	1250.88187	-633.83468	-1092.85380	1714.08945	-584.46737	-1032.67755	1649.64221	-433.77558	-1027.14606	1657.18285	-749.03558	-996.73223	1608.93593	-571.37943	-995.12375	1608.33020	-610.51189	-1081.71993	1419.03407	-343.29280	-1157.66839	1325.42714	-382.38183	-1122.50683	1343.23174	-317.77043	-1053.87975	1240.29768	-330.28457	-1009.00312	1131.74677	-350.65049	-1042.94468	1115.75648	-328.07194	-1021.06890	1522.28220	-801.37228	-1147.83658	1335.66423	-783.96571	-1126.44847	1343.18930	-842.39028	-1075.66262	1242.34740	-853.09760	-1062.89791	1117.12061	-839.88002	-1094.89565	1109.94597	-859.01657	-1115.34249	1154.20647	-481.17427	-1120.07099	1149.43550	-681.35384	-1111.37223	1149.84606	-487.98204	-1121.03796	1140.68708	-654.76154	
30	0.29000000	-1106.22942	769.45437	-452.78089	-1103.37927	695.23731	-430.98228	-1181.49296	399.82299	-462.98185	-1248.49242	359.74200	-500.51166	-1078.00113	361.54004	-437.17685	-1037.04696	387.11132	-492.82347	-1131.97170	770.87962	-729.83229	-1109.85105	702.90373	-733.64076	-1185.10987	402.40795	-733.01403	-1252.68275	361.86349	-686.84659	-1090.85027	358.65197	-757.58846	-1043.93776	387.49499	-703.85316	-1124.12605	583.64547	-426.25435	-1177.25159	707.13209	-435.82789	-1205.49558	594.75717	-433.69309	-1195.00405	722.74262	-756.76041	-1207.13042	601.36066	-765.70912	-1033.73508	1078.16149	-457.81550	-1028.40189	965.72521	-455.66154	-1070.16749	941.04444	-410.03325	-1120.73121	1075.72206	-385.72031	-1123.69532	959.27223	-400.50516	-1060.80824	1052.25915	-746.32674	-1061.78673	913.61979	-739.45526	-1175.72280	1052.22061	-770.26193	-1168.92886	911.48838	-756.11776	-1041.02808	1222.72107	-460.95994	-1225.48056	1257.90657	-524.33369	-1051.81800	1213.94000	-713.31406	-1232.25957	1252.05764	-632.87530	-1086.01902	1713.65825	-584.17639	-1026.13829	1649.03367	-433.71994	-1020.50540	1656.72968	-748.62234	-991.09465	1607.66807	-571.51029	-989.21089	1606.24296	-610.83912	-1080.28833	1420.55243	-341.28967	-1158.29761	1328.13912	-380.15424	-1122.40308	1345.79463	-315.59064	-1053.82274	1243.15169	-328.98386	-1008.33851	1135.09385	-350.34469	-1042.23420	1118.71168	-327.88244	-1017.60790	1522.34868	-801.95278	-1149.21003	1338.47927	-785.97950	-1127.48316	1345.87122	-844.48390	-1076.94221	1244.71388	-854.39442	-1064.38697	1119.84518	-840.61872	-1096.13502	1112.37918	-859.94005	-1115.93740	1154.10610	-481.18405	-1121.50049	1149.77050	-681.35120	-1112.17222	1150.16177	-488.34535	-1122.55436	1141.20414	-654.58641	
31	0.30000000	-1105.59254	769.17590	-453.07746	-1102.79654	695.17815	-431.30361	-1181.59400	400.02364	-462.75712	-1248.61535	359.83363	-500.72931	-1078.11633	361.99856	-437.25899	-1037.29047	387.59278	-492.93429	-1130.44328	770.64497	-729.44323	-1108.24205	702.59142	-733.83921	-1185.29669	402.59031	-733.12266	-1252.86778	361.83950	-686.87670	-1091.09877	359.13279	-757.22677	-1044.22110	388.18049	-703.71009	-1123.74153	583.69742	-426.42481	-1176.74340	707.20389	-435.93042	-1205.12921	594.81793	-433.58351	-1193.24830	722.98584	-756.68873	-1205.87036	601.61630	-765.66680	-1034.00572	1078.03394	-458.53509	-1028.39836	965.64681	-456.29635	-1069.68828	940.94008	-410.12186	-1120.28762	1075.75055	-384.77795	-1123.32744	958.87529	-400.71454	-1061.39958	1052.52517	-745.92969	-1061.41771	913.97365	-739.40113	-1176.26713	1051.95878	-769.99637	-1168.52898	911.02935	-755.73124	-1041.65468	1221.93003	-461.86321	-1225.13815	1258.95870	-523.60938	-1052.58295	1213.80258	-713.42628	-1232.37654	1253.31903	-632.03388	-1078.82623	1713.07398	-583.70262	-1019.44299	1648.20969	-433.66621	-1013.57262	1655.97099	-748.45086	-985.19042	1606.14245	-571.46179	-983.20449	1604.21881	-610.93251	-1078.65992	1421.94434	-339.40903	-1158.59600	1330.74694	-378.02980	-1122.00786	1348.13296	-313.59915	-1053.57074	1245.72742	-327.78875	-1007.64169	1138.18430	-349.93108	-1041.56585	1121.29609	-327.91141	-1014.13167	1522.24240	-802.76312	-1150.25093	1341.17276	-787.74989	-1128.38839	1348.43432	-846.20004	-1078.11460	1246.95101	-855.56025	-1065.79461	1122.22398	-841.31632	-1097.30474	1114.78906	-860.92981	-1116.64466	1153.99248	-481.33360	-1122.95600	1150.21934	-681.49218	-1113.06775	1150.45535	-488.97554	-1124.13045	1141.83715	-654.65769	
32	0.31000000	-1105.34821	768.85391	-453.34559	-1102.09329	695.03724	-431.56608	-1181.74647	400.09324	-462.69886	-1248.69546	359.77757	-500.66087	-1078.35443	362.36025	-437.33393	-1037.54275	388.11559	-492.98822	-1128.57074	770.35415	-729.19656	-1106.36252	702.19231	-734.06729	-1185.50848	402.74265	-733.20372	-1253.09993	361.78591	-686.85104	-1091.20573	359.85569	-757.40076	-1044.51886	388.83747	-703.69295	-1123.27756	583.58768	-426.60350	-1176.06201	707.29174	-435.87859	-1204.73330	594.92506	-433.47212	-1191.27500	723.19797	-756.53364	-1204.53924	601.84824	-765.68142	-1034.33405	1077.97946	-459.17329	-1027.96174	965.23503	-457.27623	-1069.33122	940.80654	-410.19574	-1119.95811	1075.67870	-384.15846	-1122.95905	958.58187	-400.47079	-1062.10392	1052.81983	-745.35419	-1060.91321	914.37643	-739.30797	-1176.88187	1051.56133	-769.54591	-1168.00463	910.48088	-755.29666	-1042.01283	1221.27678	-462.47267	-1224.92180	1260.09363	-522.78069	-1053.76129	1213.35884	-713.18442	-1232.71441	1254.74382	-631.43724	-1071.33328	1712.32713	-583.22906	-1012.45836	1647.11791	-433.51699	-1006.52541	1654.90822	-748.23303	-979.04063	1604.24752	-571.24289	-977.18674	1602.35838	-610.67624	-1076.75331	1423.10142	-337.82847	-1158.54136	1333.22598	-375.95473	-1121.35849	1350.32819	-311.67181	-1053.16682	1247.99984	-326.69933	-1006.94824	1140.92552	-349.53298	-1040.89180	1123.58402	-327.98792	-1010.54530	1521.88246	-803.68164	-1150.96760	1343.77445	-789.36457	-1129.07777	1350.84260	-847.63816	-1079.14606	1249.01644	-856.70940	-1067.05551	1124.25883	-842.01648	-1098.40953	1117.01333	-861.77260	-1117.51611	1154.06943	-481.21108	-1124.67053	1150.50424	-681.34573	-1113.93474	1150.53245	-489.29665	-1125.77675	1142.40110	-654.40693	
33	0.32000000	-1105.04303	768.67829	-453.67843	-1101.36234	694.82827	-431.83937	-1181.99498	399.96131	-462.90714	-1248.80109	359.62982	-500.34975	-1078.57688	362.63568	-437.46485	-1037.78183	388.59951	-492.97100	-1126.29757	770.09653	-729.31477	-1104.07342	701.59878	-734.17689	-1185.76408	402.96858	-733.38548	-1253.31960	361.74460	-686.79949	-1091.23538	360.55597	-757.78865	-1044.79209	389.45585	-703.70948	-1122.85428	583.26594	-426.82787	-1175.20504	707.48239	-435.81035	-1204.26030	595.18727	-433.28513	-1188.83861	723.37397	-756.52753	-1203.29640	602.16948	-765.80922	-1034.60473	1077.96929	-459.85747	-1027.63877	964.94322	-457.79098	-1069.05032	940.67452	-410.33822	-1119.78958	1075.37772	-384.06578	-1122.59987	958.27578	-400.24237	-1062.73381	1053.15414	-744.89887	-1060.20323	914.81325	-738.99736	-1177.52618	1050.92176	-768.87283	-1167.32261	909.94132	-754.89271	-1041.98925	1220.63388	-462.63954	-1224.83943	1261.32889	-521.89875	-1056.25628	1212.13974	-712.26692	-1233.74338	1256.17549	-630.72303	-1063.57805	1711.31957	-582.96196	-1005.10399	1645.67659	-433.39607	-999.60487	1653.49754	-747.65829	-972.70305	1601.88991	-571.10660	-971.00010	1600.25518	-610.45246	-1074.46933	1423.95466	-336.46687	-1158.13212	1335.49227	-374.12529	-1120.43221	1352.29279	-309.88922	-1052.57707	1249.95904	-325.66794	-1006.24161	1143.22200	-349.29794	-1040.20995	1125.60851	-327.95744	-1006.72386	1521.20724	-804.46235	-1151.36208	1346.19234	-790.77536	-1129.49060	1353.06109	-849.02153	-1079.89222	1250.88315	-857.81676	-1068.16050	1126.23875	-842.77274	-1099.46878	1118.98366	-862.43680	-1118.74835	1154.33352	-480.49616	-1127.30384	1150.22904	-680.55947	-1114.82821	1150.42403	-488.69193	-1128.27583	1142.63836	-653.07590	
